<svg xmlns="http://www.w3.org/2000/svg" viewBox="0 0 100 100">
  <defs>
    <linearGradient id="gradient" x1="0%" y1="0%" x2="100%" y2="100%">
      <stop offset="0%" style="stop-color:#3b82f6;stop-opacity:1" />
      <stop offset="100%" style="stop-color:#2563eb;stop-opacity:1" />
    </linearGradient>
  </defs>

  <!-- Background circle -->
  <circle cx="50" cy="50" r="48" fill="url(#gradient)"/>

  <!-- DA monogram in white -->
  <!-- Letter D -->
  <path d="M 25 30 L 38 30 C 50 30 56 36 56 48 C 56 60 50 68 38 68 L 25 68 Z M 31 36 L 31 62 L 38 62 C 46 62 50 58 50 48 C 50 38 46 36 38 36 Z" fill="white"/>

  <!-- Letter A -->
  <path d="M 60 68 L 67 50 L 74 68 L 80 68 L 70 30 L 64 30 L 54 68 Z M 67 42 L 71 56 L 63 56 Z" fill="white"/>
</svg>
